<?xml version="1.0" encoding="UTF-8" standalone="no"?>
<!DOCTYPE svg PUBLIC "-//W3C//DTD SVG 1.1//EN"
 "http://www.w3.org/Graphics/SVG/1.1/DTD/svg11.dtd">
<!-- Generated by graphviz version 13.1.0 (20250701.0955)
 -->
<!-- Title: syn6288e_advance_init Pages: 1 -->
<svg width="455pt" height="680pt"
 viewBox="0.00 0.00 455.00 680.00" xmlns="http://www.w3.org/2000/svg" xmlns:xlink="http://www.w3.org/1999/xlink">
<g id="graph0" class="graph" transform="scale(1 1) rotate(0) translate(4 676)">
<title>syn6288e_advance_init</title>
<!-- Node1 -->
<g id="Node000001" class="node">
<title>Node1</title>
<g id="a_Node000001"><a xlink:title="advance example init">
<polygon fill="#999999" stroke="#666666" points="118,-340 0,-340 0,-320 118,-320 118,-340"/>
<text xml:space="preserve" text-anchor="middle" x="59" y="-326.5" font-family="Helvetica,sans-Serif" font-size="10.00">syn6288e_advance_init</text>
</a>
</g>
</g>
<!-- Node2 -->
<g id="Node000002" class="node">
<title>Node2</title>
<g id="a_Node000002"><a xlink:href="group__syn6288e__base__driver.html#ga32e0712f97dd34947b151ee47fab65b7" target="_top" xlink:title="close the chip">
<polygon fill="white" stroke="#666666" points="263.38,-672 176.88,-672 176.88,-652 263.38,-652 263.38,-672"/>
<text xml:space="preserve" text-anchor="middle" x="220.12" y="-658.5" font-family="Helvetica,sans-Serif" font-size="10.00">syn6288e_deinit</text>
</a>
</g>
</g>
<!-- Node1&#45;&gt;Node2 -->
<g id="edge1_Node000001_Node000002" class="edge">
<title>Node1&#45;&gt;Node2</title>
<g id="a_edge1_Node000001_Node000002"><a xlink:title=" ">
<path fill="none" stroke="#63b8ff" d="M59.8,-340.4C59.56,-384.05 64.58,-554.29 154,-643 157.58,-646.55 161.78,-649.44 166.29,-651.8"/>
<polygon fill="#63b8ff" stroke="#63b8ff" points="164.59,-654.88 175.17,-655.56 167.33,-648.44 164.59,-654.88"/>
</a>
</g>
</g>
<!-- Node3 -->
<g id="Node000003" class="node">
<title>Node3</title>
<g id="a_Node000003"><a xlink:href="group__syn6288e__base__driver.html#ga172947bacb87149f618b9287c6321627" target="_top" xlink:title="initialize the chip">
<polygon fill="white" stroke="#666666" points="258.12,-634 182.12,-634 182.12,-614 258.12,-614 258.12,-634"/>
<text xml:space="preserve" text-anchor="middle" x="220.12" y="-620.5" font-family="Helvetica,sans-Serif" font-size="10.00">syn6288e_init</text>
</a>
</g>
</g>
<!-- Node1&#45;&gt;Node3 -->
<g id="edge2_Node000001_Node000003" class="edge">
<title>Node1&#45;&gt;Node3</title>
<g id="a_edge2_Node000001_Node000003"><a xlink:title=" ">
<path fill="none" stroke="#63b8ff" d="M60.29,-340.24C62.01,-380.34 73.75,-528.32 154,-605 158.86,-609.64 164.78,-613.15 171.05,-615.82"/>
<polygon fill="#63b8ff" stroke="#63b8ff" points="169.79,-619.08 180.39,-619.04 172.08,-612.47 169.79,-619.08"/>
</a>
</g>
</g>
<!-- Node4 -->
<g id="Node000004" class="node">
<title>Node4</title>
<g id="a_Node000004"><a xlink:href="group__syn6288e__interface__driver.html#gabc89328936a4fec87c7ed0ce188f6377" target="_top" xlink:title="interface print format data">
<polygon fill="white" stroke="#666666" points="270.5,-596 169.75,-596 169.75,-564 270.5,-564 270.5,-596"/>
<text xml:space="preserve" text-anchor="start" x="177.75" y="-582.5" font-family="Helvetica,sans-Serif" font-size="10.00">syn6288e_interface</text>
<text xml:space="preserve" text-anchor="middle" x="220.12" y="-570.5" font-family="Helvetica,sans-Serif" font-size="10.00">_debug_print</text>
</a>
</g>
</g>
<!-- Node1&#45;&gt;Node4 -->
<g id="edge3_Node000001_Node000004" class="edge">
<title>Node1&#45;&gt;Node4</title>
<g id="a_edge3_Node000001_Node000004"><a xlink:title=" ">
<path fill="none" stroke="#63b8ff" d="M61.36,-340.1C66.58,-374.91 88.4,-491.29 154,-555 155.84,-556.78 157.81,-558.44 159.89,-559.98"/>
<polygon fill="#63b8ff" stroke="#63b8ff" points="157.96,-562.9 168.29,-565.23 161.67,-556.97 157.96,-562.9"/>
</a>
</g>
</g>
<!-- Node5 -->
<g id="Node000005" class="node">
<title>Node5</title>
<g id="a_Node000005"><a xlink:href="group__syn6288e__interface__driver.html#ga80bcdfcaeef9b735993b0aafb1831305" target="_top" xlink:title="interface delay ms">
<polygon fill="white" stroke="#666666" points="270.5,-546 169.75,-546 169.75,-514 270.5,-514 270.5,-546"/>
<text xml:space="preserve" text-anchor="start" x="177.75" y="-532.5" font-family="Helvetica,sans-Serif" font-size="10.00">syn6288e_interface</text>
<text xml:space="preserve" text-anchor="middle" x="220.12" y="-520.5" font-family="Helvetica,sans-Serif" font-size="10.00">_delay_ms</text>
</a>
</g>
</g>
<!-- Node1&#45;&gt;Node5 -->
<g id="edge4_Node000001_Node000005" class="edge">
<title>Node1&#45;&gt;Node5</title>
<g id="a_edge4_Node000001_Node000005"><a xlink:title=" ">
<path fill="none" stroke="#63b8ff" d="M62.75,-340.28C71.22,-370.04 99.66,-457.13 154,-505 155.85,-506.63 157.81,-508.15 159.86,-509.58"/>
<polygon fill="#63b8ff" stroke="#63b8ff" points="157.64,-512.33 168.01,-514.48 161.25,-506.33 157.64,-512.33"/>
</a>
</g>
</g>
<!-- Node6 -->
<g id="Node000006" class="node">
<title>Node6</title>
<g id="a_Node000006"><a xlink:href="group__syn6288e__interface__driver.html#gad9547cd1c611abd47e903e0caad052cf" target="_top" xlink:title="interface uart deinit">
<polygon fill="white" stroke="#666666" points="270.5,-496 169.75,-496 169.75,-464 270.5,-464 270.5,-496"/>
<text xml:space="preserve" text-anchor="start" x="177.75" y="-482.5" font-family="Helvetica,sans-Serif" font-size="10.00">syn6288e_interface</text>
<text xml:space="preserve" text-anchor="middle" x="220.12" y="-470.5" font-family="Helvetica,sans-Serif" font-size="10.00">_uart_deinit</text>
</a>
</g>
</g>
<!-- Node1&#45;&gt;Node6 -->
<g id="edge5_Node000001_Node000006" class="edge">
<title>Node1&#45;&gt;Node6</title>
<g id="a_edge5_Node000001_Node000006"><a xlink:title=" ">
<path fill="none" stroke="#63b8ff" d="M65.12,-340.28C77.33,-363.82 110.43,-422.13 154,-455 155.78,-456.34 157.63,-457.62 159.55,-458.83"/>
<polygon fill="#63b8ff" stroke="#63b8ff" points="157.78,-461.85 168.22,-463.67 161.19,-455.74 157.78,-461.85"/>
</a>
</g>
</g>
<!-- Node7 -->
<g id="Node000007" class="node">
<title>Node7</title>
<g id="a_Node000007"><a xlink:href="group__syn6288e__interface__driver.html#ga46b2b35e51ac9592e47f3d467982163d" target="_top" xlink:title="interface uart flush">
<polygon fill="white" stroke="#666666" points="270.5,-446 169.75,-446 169.75,-414 270.5,-414 270.5,-446"/>
<text xml:space="preserve" text-anchor="start" x="177.75" y="-432.5" font-family="Helvetica,sans-Serif" font-size="10.00">syn6288e_interface</text>
<text xml:space="preserve" text-anchor="middle" x="220.12" y="-420.5" font-family="Helvetica,sans-Serif" font-size="10.00">_uart_flush</text>
</a>
</g>
</g>
<!-- Node1&#45;&gt;Node7 -->
<g id="edge6_Node000001_Node000007" class="edge">
<title>Node1&#45;&gt;Node7</title>
<g id="a_edge6_Node000001_Node000007"><a xlink:title=" ">
<path fill="none" stroke="#63b8ff" d="M70.76,-340.44C87.43,-356.18 121.03,-386.12 154,-405 156.31,-406.32 158.69,-407.6 161.14,-408.83"/>
<polygon fill="#63b8ff" stroke="#63b8ff" points="159.47,-411.92 170.01,-412.99 162.44,-405.58 159.47,-411.92"/>
</a>
</g>
</g>
<!-- Node8 -->
<g id="Node000008" class="node">
<title>Node8</title>
<g id="a_Node000008"><a xlink:href="group__syn6288e__interface__driver.html#ga1ec17920469019e72367d77a7b889212" target="_top" xlink:title="interface uart init">
<polygon fill="white" stroke="#666666" points="270.5,-396 169.75,-396 169.75,-364 270.5,-364 270.5,-396"/>
<text xml:space="preserve" text-anchor="start" x="177.75" y="-382.5" font-family="Helvetica,sans-Serif" font-size="10.00">syn6288e_interface</text>
<text xml:space="preserve" text-anchor="middle" x="220.12" y="-370.5" font-family="Helvetica,sans-Serif" font-size="10.00">_uart_init</text>
</a>
</g>
</g>
<!-- Node1&#45;&gt;Node8 -->
<g id="edge7_Node000001_Node000008" class="edge">
<title>Node1&#45;&gt;Node8</title>
<g id="a_edge7_Node000001_Node000008"><a xlink:title=" ">
<path fill="none" stroke="#63b8ff" d="M93.36,-340.48C112.31,-346.44 136.62,-354.07 158.8,-361.04"/>
<polygon fill="#63b8ff" stroke="#63b8ff" points="157.45,-364.29 168.04,-363.95 159.55,-357.61 157.45,-364.29"/>
</a>
</g>
</g>
<!-- Node9 -->
<g id="Node000009" class="node">
<title>Node9</title>
<g id="a_Node000009"><a xlink:href="group__syn6288e__interface__driver.html#gab44724a376030068f31dad3e4c5c5491" target="_top" xlink:title="interface uart read">
<polygon fill="white" stroke="#666666" points="270.5,-346 169.75,-346 169.75,-314 270.5,-314 270.5,-346"/>
<text xml:space="preserve" text-anchor="start" x="177.75" y="-332.5" font-family="Helvetica,sans-Serif" font-size="10.00">syn6288e_interface</text>
<text xml:space="preserve" text-anchor="middle" x="220.12" y="-320.5" font-family="Helvetica,sans-Serif" font-size="10.00">_uart_read</text>
</a>
</g>
</g>
<!-- Node1&#45;&gt;Node9 -->
<g id="edge8_Node000001_Node000009" class="edge">
<title>Node1&#45;&gt;Node9</title>
<g id="a_edge8_Node000001_Node000009"><a xlink:title=" ">
<path fill="none" stroke="#63b8ff" d="M118.35,-330C131.31,-330 145.09,-330 158.16,-330"/>
<polygon fill="#63b8ff" stroke="#63b8ff" points="157.91,-333.5 167.91,-330 157.91,-326.5 157.91,-333.5"/>
</a>
</g>
</g>
<!-- Node10 -->
<g id="Node000010" class="node">
<title>Node10</title>
<g id="a_Node000010"><a xlink:href="group__syn6288e__interface__driver.html#gac787aec548ad34413d60e41f3521c44a" target="_top" xlink:title="interface uart write">
<polygon fill="white" stroke="#666666" points="270.5,-296 169.75,-296 169.75,-264 270.5,-264 270.5,-296"/>
<text xml:space="preserve" text-anchor="start" x="177.75" y="-282.5" font-family="Helvetica,sans-Serif" font-size="10.00">syn6288e_interface</text>
<text xml:space="preserve" text-anchor="middle" x="220.12" y="-270.5" font-family="Helvetica,sans-Serif" font-size="10.00">_uart_write</text>
</a>
</g>
</g>
<!-- Node1&#45;&gt;Node10 -->
<g id="edge9_Node000001_Node000010" class="edge">
<title>Node1&#45;&gt;Node10</title>
<g id="a_edge9_Node000001_Node000010"><a xlink:title=" ">
<path fill="none" stroke="#63b8ff" d="M93.36,-319.52C112.31,-313.56 136.62,-305.93 158.8,-298.96"/>
<polygon fill="#63b8ff" stroke="#63b8ff" points="159.55,-302.39 168.04,-296.05 157.45,-295.71 159.55,-302.39"/>
</a>
</g>
</g>
<!-- Node11 -->
<g id="Node000011" class="node">
<title>Node11</title>
<g id="a_Node000011"><a xlink:href="group__syn6288e__advance__driver.html#ga052127ef7bbf2d3f5f277f3037502b5f" target="_top" xlink:title="set the synthesis background volume">
<polygon fill="white" stroke="#666666" points="286.25,-246 154,-246 154,-214 286.25,-214 286.25,-246"/>
<text xml:space="preserve" text-anchor="start" x="162" y="-232.5" font-family="Helvetica,sans-Serif" font-size="10.00">syn6288e_set_background</text>
<text xml:space="preserve" text-anchor="middle" x="220.12" y="-220.5" font-family="Helvetica,sans-Serif" font-size="10.00">_volume</text>
</a>
</g>
</g>
<!-- Node1&#45;&gt;Node11 -->
<g id="edge10_Node000001_Node000011" class="edge">
<title>Node1&#45;&gt;Node11</title>
<g id="a_edge10_Node000001_Node000011"><a xlink:title=" ">
<path fill="none" stroke="#63b8ff" d="M70.76,-319.56C87.43,-303.82 121.03,-273.88 154,-255 156.31,-253.68 158.69,-252.4 161.14,-251.17"/>
<polygon fill="#63b8ff" stroke="#63b8ff" points="162.44,-254.42 170.01,-247.01 159.47,-248.08 162.44,-254.42"/>
</a>
</g>
</g>
<!-- Node13 -->
<g id="Node000013" class="node">
<title>Node13</title>
<g id="a_Node000013"><a xlink:href="group__syn6288e__advance__driver.html#ga34dca4b83f6ee4154c761286ae07aa9e" target="_top" xlink:title="set the baud rate">
<polygon fill="white" stroke="#666666" points="282.5,-196 157.75,-196 157.75,-176 282.5,-176 282.5,-196"/>
<text xml:space="preserve" text-anchor="middle" x="220.12" y="-182.5" font-family="Helvetica,sans-Serif" font-size="10.00">syn6288e_set_baud_rate</text>
</a>
</g>
</g>
<!-- Node1&#45;&gt;Node13 -->
<g id="edge12_Node000001_Node000013" class="edge">
<title>Node1&#45;&gt;Node13</title>
<g id="a_edge12_Node000001_Node000013"><a xlink:title=" ">
<path fill="none" stroke="#63b8ff" d="M64.76,-319.82C76.44,-295.99 108.89,-236.19 154,-205 155.93,-203.67 157.95,-202.42 160.05,-201.27"/>
<polygon fill="#63b8ff" stroke="#63b8ff" points="161.31,-204.54 168.86,-197.11 158.32,-198.21 161.31,-204.54"/>
</a>
</g>
</g>
<!-- Node14 -->
<g id="Node000014" class="node">
<title>Node14</title>
<g id="a_Node000014"><a xlink:href="group__syn6288e__advance__driver.html#gafe71d66fdf84e943b89a98f8c380bb64" target="_top" xlink:title="set the chip mode">
<polygon fill="white" stroke="#666666" points="273.12,-158 167.12,-158 167.12,-138 273.12,-138 273.12,-158"/>
<text xml:space="preserve" text-anchor="middle" x="220.12" y="-144.5" font-family="Helvetica,sans-Serif" font-size="10.00">syn6288e_set_mode</text>
</a>
</g>
</g>
<!-- Node1&#45;&gt;Node14 -->
<g id="edge13_Node000001_Node000014" class="edge">
<title>Node1&#45;&gt;Node14</title>
<g id="a_edge13_Node000001_Node000014"><a xlink:title=" ">
<path fill="none" stroke="#63b8ff" d="M62.91,-319.8C71.63,-291.13 100.31,-209.17 154,-167 155.5,-165.82 157.06,-164.72 158.69,-163.69"/>
<polygon fill="#63b8ff" stroke="#63b8ff" points="159.96,-166.97 167.15,-159.19 156.68,-160.79 159.96,-166.97"/>
</a>
</g>
</g>
<!-- Node15 -->
<g id="Node000015" class="node">
<title>Node15</title>
<g id="a_Node000015"><a xlink:href="group__syn6288e__advance__driver.html#ga8a5f39283e056acf93c1e9739e2fa792" target="_top" xlink:title="set the synthesis speed">
<polygon fill="white" stroke="#666666" points="282.12,-120 158.12,-120 158.12,-88 282.12,-88 282.12,-120"/>
<text xml:space="preserve" text-anchor="start" x="166.12" y="-106.5" font-family="Helvetica,sans-Serif" font-size="10.00">syn6288e_set_synthesis</text>
<text xml:space="preserve" text-anchor="middle" x="220.12" y="-94.5" font-family="Helvetica,sans-Serif" font-size="10.00">_speed</text>
</a>
</g>
</g>
<!-- Node1&#45;&gt;Node15 -->
<g id="edge14_Node000001_Node000015" class="edge">
<title>Node1&#45;&gt;Node15</title>
<g id="a_edge14_Node000001_Node000015"><a xlink:title=" ">
<path fill="none" stroke="#63b8ff" d="M61.98,-319.63C68.76,-286.94 93.96,-184.93 154,-129 154.76,-128.3 155.53,-127.61 156.33,-126.94"/>
<polygon fill="#63b8ff" stroke="#63b8ff" points="158.11,-129.97 164.28,-121.37 154.09,-124.24 158.11,-129.97"/>
</a>
</g>
</g>
<!-- Node16 -->
<g id="Node000016" class="node">
<title>Node16</title>
<g id="a_Node000016"><a xlink:href="group__syn6288e__advance__driver.html#gac7b237140ecb430a4f5c57fef3f48dd0" target="_top" xlink:title="set the chip synthesis volume">
<polygon fill="white" stroke="#666666" points="282.12,-70 158.12,-70 158.12,-38 282.12,-38 282.12,-70"/>
<text xml:space="preserve" text-anchor="start" x="166.12" y="-56.5" font-family="Helvetica,sans-Serif" font-size="10.00">syn6288e_set_synthesis</text>
<text xml:space="preserve" text-anchor="middle" x="220.12" y="-44.5" font-family="Helvetica,sans-Serif" font-size="10.00">_volume</text>
</a>
</g>
</g>
<!-- Node1&#45;&gt;Node16 -->
<g id="edge16_Node000001_Node000016" class="edge">
<title>Node1&#45;&gt;Node16</title>
<g id="a_edge16_Node000001_Node000016"><a xlink:title=" ">
<path fill="none" stroke="#63b8ff" d="M60.9,-319.55C64.71,-281.79 82.73,-150.86 154,-79 154.61,-78.39 155.23,-77.79 155.87,-77.21"/>
<polygon fill="#63b8ff" stroke="#63b8ff" points="157.83,-80.12 163.72,-71.31 153.62,-74.52 157.83,-80.12"/>
</a>
</g>
</g>
<!-- Node17 -->
<g id="Node000017" class="node">
<title>Node17</title>
<g id="a_Node000017"><a xlink:href="group__syn6288e__base__driver.html#ga4f7a298caa7413cba060b3cb0bc0f0d4" target="_top" xlink:title="set the chip text type">
<polygon fill="white" stroke="#666666" points="281.38,-20 158.88,-20 158.88,0 281.38,0 281.38,-20"/>
<text xml:space="preserve" text-anchor="middle" x="220.12" y="-6.5" font-family="Helvetica,sans-Serif" font-size="10.00">syn6288e_set_text_type</text>
</a>
</g>
</g>
<!-- Node1&#45;&gt;Node17 -->
<g id="edge18_Node000001_Node000017" class="edge">
<title>Node1&#45;&gt;Node17</title>
<g id="a_edge18_Node000001_Node000017"><a xlink:title=" ">
<path fill="none" stroke="#63b8ff" d="M59.95,-319.7C60.3,-277.23 67.45,-113.93 154,-29 154.88,-28.13 155.8,-27.31 156.75,-26.52"/>
<polygon fill="#63b8ff" stroke="#63b8ff" points="158.4,-29.63 164.82,-21.2 154.54,-23.78 158.4,-29.63"/>
</a>
</g>
</g>
<!-- Node12 -->
<g id="Node000012" class="node">
<title>Node12</title>
<g id="a_Node000012"><a xlink:href="group__syn6288e__extend__driver.html#ga6e859df066db8be021d2ebfab4d6a778" target="_top" xlink:title="send the command to the chip">
<polygon fill="white" stroke="#666666" points="447,-114 322.25,-114 322.25,-94 447,-94 447,-114"/>
<text xml:space="preserve" text-anchor="middle" x="384.62" y="-100.5" font-family="Helvetica,sans-Serif" font-size="10.00">syn6288e_set_command</text>
</a>
</g>
</g>
<!-- Node11&#45;&gt;Node12 -->
<g id="edge11_Node000011_Node000012" class="edge">
<title>Node11&#45;&gt;Node12</title>
<g id="a_edge11_Node000011_Node000012"><a xlink:title=" ">
<path fill="none" stroke="#63b8ff" d="M270.98,-213.5C276.31,-210.98 281.5,-208.14 286.25,-205 320.56,-182.27 352.01,-145.54 369.42,-123.19"/>
<polygon fill="#63b8ff" stroke="#63b8ff" points="371.99,-125.59 375.27,-115.51 366.42,-121.35 371.99,-125.59"/>
</a>
</g>
</g>
<!-- Node15&#45;&gt;Node12 -->
<g id="edge15_Node000015_Node000012" class="edge">
<title>Node15&#45;&gt;Node12</title>
<g id="a_edge15_Node000015_Node000012"><a xlink:title=" ">
<path fill="none" stroke="#63b8ff" d="M282.56,-104C291.7,-104 301.19,-104 310.54,-104"/>
<polygon fill="#63b8ff" stroke="#63b8ff" points="310.32,-107.5 320.32,-104 310.32,-100.5 310.32,-107.5"/>
</a>
</g>
</g>
<!-- Node16&#45;&gt;Node12 -->
<g id="edge17_Node000016_Node000012" class="edge">
<title>Node16&#45;&gt;Node12</title>
<g id="a_edge17_Node000016_Node000012"><a xlink:title=" ">
<path fill="none" stroke="#63b8ff" d="M274.33,-70.37C295.17,-76.78 318.8,-84.06 338.75,-90.19"/>
<polygon fill="#63b8ff" stroke="#63b8ff" points="337.69,-93.53 348.27,-93.12 339.75,-86.84 337.69,-93.53"/>
</a>
</g>
</g>
</g>
</svg>
