<?xml version="1.0" encoding="UTF-8" standalone="no"?>
<!DOCTYPE svg PUBLIC "-//W3C//DTD SVG 1.1//EN"
 "http://www.w3.org/Graphics/SVG/1.1/DTD/svg11.dtd">
<!-- Generated by graphviz version 13.1.0 (20250701.0955)
 -->
<!-- Title: syn6288e_advance_ring Pages: 1 -->
<svg width="291pt" height="66pt"
 viewBox="0.00 0.00 291.00 66.00" xmlns="http://www.w3.org/2000/svg" xmlns:xlink="http://www.w3.org/1999/xlink">
<g id="graph0" class="graph" transform="scale(1 1) rotate(0) translate(4 62)">
<title>syn6288e_advance_ring</title>
<!-- Node1 -->
<g id="Node000001" class="node">
<title>Node1</title>
<g id="a_Node000001"><a xlink:title="advance example play the ring">
<polygon fill="#999999" stroke="#666666" points="121,-39 0,-39 0,-19 121,-19 121,-39"/>
<text xml:space="preserve" text-anchor="middle" x="60.5" y="-25.5" font-family="Helvetica,sans-Serif" font-size="10.00">syn6288e_advance_ring</text>
</a>
</g>
</g>
<!-- Node2 -->
<g id="Node000002" class="node">
<title>Node2</title>
<g id="a_Node000002"><a xlink:href="group__syn6288e__base__driver.html#ga801964beb66e070b9cce6163e3d5cbc5" target="_top" xlink:title="get the current status">
<polygon fill="white" stroke="#666666" points="274.62,-58 165.62,-58 165.62,-38 274.62,-38 274.62,-58"/>
<text xml:space="preserve" text-anchor="middle" x="220.12" y="-44.5" font-family="Helvetica,sans-Serif" font-size="10.00">syn6288e_get_status</text>
</a>
</g>
</g>
<!-- Node1&#45;&gt;Node2 -->
<g id="edge1_Node000001_Node000002" class="edge">
<title>Node1&#45;&gt;Node2</title>
<g id="a_edge1_Node000001_Node000002"><a xlink:title=" ">
<path fill="none" stroke="#63b8ff" d="M121.09,-36.18C131.83,-37.48 143.08,-38.83 153.97,-40.15"/>
<polygon fill="#63b8ff" stroke="#63b8ff" points="153.3,-43.59 163.65,-41.31 154.14,-36.64 153.3,-43.59"/>
</a>
</g>
</g>
<!-- Node3 -->
<g id="Node000003" class="node">
<title>Node3</title>
<g id="a_Node000003"><a xlink:href="group__syn6288e__base__driver.html#ga2fe2b02ad464bfa30d200a58f6bb9253" target="_top" xlink:title="synthesis the ring">
<polygon fill="white" stroke="#666666" points="283.25,-20 157,-20 157,0 283.25,0 283.25,-20"/>
<text xml:space="preserve" text-anchor="middle" x="220.12" y="-6.5" font-family="Helvetica,sans-Serif" font-size="10.00">syn6288e_synthesis_ring</text>
</a>
</g>
</g>
<!-- Node1&#45;&gt;Node3 -->
<g id="edge2_Node000001_Node000003" class="edge">
<title>Node1&#45;&gt;Node3</title>
<g id="a_edge2_Node000001_Node000003"><a xlink:title=" ">
<path fill="none" stroke="#63b8ff" d="M121.09,-21.82C128.97,-20.87 137.13,-19.88 145.21,-18.91"/>
<polygon fill="#63b8ff" stroke="#63b8ff" points="145.55,-22.39 155.06,-17.72 144.71,-15.44 145.55,-22.39"/>
</a>
</g>
</g>
</g>
</svg>
