<?xml version="1.0" encoding="UTF-8" standalone="no"?>
<!DOCTYPE svg PUBLIC "-//W3C//DTD SVG 1.1//EN"
 "http://www.w3.org/Graphics/SVG/1.1/DTD/svg11.dtd">
<!-- Generated by graphviz version 13.1.0 (20250701.0955)
 -->
<!-- Title: syn6288e_advance_message Pages: 1 -->
<svg width="298pt" height="78pt"
 viewBox="0.00 0.00 298.00 78.00" xmlns="http://www.w3.org/2000/svg" xmlns:xlink="http://www.w3.org/1999/xlink">
<g id="graph0" class="graph" transform="scale(1 1) rotate(0) translate(4 74)">
<title>syn6288e_advance_message</title>
<!-- Node1 -->
<g id="Node000001" class="node">
<title>Node1</title>
<g id="a_Node000001"><a xlink:title="advance example play the message">
<polygon fill="#999999" stroke="#666666" points="145,-48 0,-48 0,-28 145,-28 145,-48"/>
<text xml:space="preserve" text-anchor="middle" x="72.5" y="-34.5" font-family="Helvetica,sans-Serif" font-size="10.00">syn6288e_advance_message</text>
</a>
</g>
</g>
<!-- Node2 -->
<g id="Node000002" class="node">
<title>Node2</title>
<g id="a_Node000002"><a xlink:href="group__syn6288e__base__driver.html#ga801964beb66e070b9cce6163e3d5cbc5" target="_top" xlink:title="get the current status">
<polygon fill="white" stroke="#666666" points="290,-70 181,-70 181,-50 290,-50 290,-70"/>
<text xml:space="preserve" text-anchor="middle" x="235.5" y="-56.5" font-family="Helvetica,sans-Serif" font-size="10.00">syn6288e_get_status</text>
</a>
</g>
</g>
<!-- Node1&#45;&gt;Node2 -->
<g id="edge1_Node000001_Node000002" class="edge">
<title>Node1&#45;&gt;Node2</title>
<g id="a_edge1_Node000001_Node000002"><a xlink:title=" ">
<path fill="none" stroke="#63b8ff" d="M145.05,-47.78C153.16,-48.89 161.39,-50.01 169.4,-51.1"/>
<polygon fill="#63b8ff" stroke="#63b8ff" points="168.68,-54.54 179.06,-52.42 169.63,-47.6 168.68,-54.54"/>
</a>
</g>
</g>
<!-- Node3 -->
<g id="Node000003" class="node">
<title>Node3</title>
<g id="a_Node000003"><a xlink:href="group__syn6288e__base__driver.html#gaa15bf28a8451f61687786c929a5f3015" target="_top" xlink:title="synthesis the message">
<polygon fill="white" stroke="#666666" points="288.12,-32 182.88,-32 182.88,0 288.12,0 288.12,-32"/>
<text xml:space="preserve" text-anchor="start" x="190.88" y="-18.5" font-family="Helvetica,sans-Serif" font-size="10.00">syn6288e_synthesis</text>
<text xml:space="preserve" text-anchor="middle" x="235.5" y="-6.5" font-family="Helvetica,sans-Serif" font-size="10.00">_message</text>
</a>
</g>
</g>
<!-- Node1&#45;&gt;Node3 -->
<g id="edge2_Node000001_Node000003" class="edge">
<title>Node1&#45;&gt;Node3</title>
<g id="a_edge2_Node000001_Node000003"><a xlink:title=" ">
<path fill="none" stroke="#63b8ff" d="M145.05,-28.22C153.81,-27.03 162.72,-25.81 171.34,-24.63"/>
<polygon fill="#63b8ff" stroke="#63b8ff" points="171.55,-28.14 180.98,-23.31 170.6,-21.2 171.55,-28.14"/>
</a>
</g>
</g>
</g>
</svg>
