<?xml version="1.0" encoding="UTF-8" standalone="no"?>
<!DOCTYPE svg PUBLIC "-//W3C//DTD SVG 1.1//EN"
 "http://www.w3.org/Graphics/SVG/1.1/DTD/svg11.dtd">
<!-- Generated by graphviz version 13.1.0 (20250701.0955)
 -->
<!-- Title: syn6288e_advance_sound Pages: 1 -->
<svg width="285pt" height="78pt"
 viewBox="0.00 0.00 285.00 78.00" xmlns="http://www.w3.org/2000/svg" xmlns:xlink="http://www.w3.org/1999/xlink">
<g id="graph0" class="graph" transform="scale(1 1) rotate(0) translate(4 74)">
<title>syn6288e_advance_sound</title>
<!-- Node1 -->
<g id="Node000001" class="node">
<title>Node1</title>
<g id="a_Node000001"><a xlink:title="advance example play the sound">
<polygon fill="#999999" stroke="#666666" points="131.5,-48 0,-48 0,-28 131.5,-28 131.5,-48"/>
<text xml:space="preserve" text-anchor="middle" x="65.75" y="-34.5" font-family="Helvetica,sans-Serif" font-size="10.00">syn6288e_advance_sound</text>
</a>
</g>
</g>
<!-- Node2 -->
<g id="Node000002" class="node">
<title>Node2</title>
<g id="a_Node000002"><a xlink:href="group__syn6288e__base__driver.html#ga801964beb66e070b9cce6163e3d5cbc5" target="_top" xlink:title="get the current status">
<polygon fill="white" stroke="#666666" points="276.5,-70 167.5,-70 167.5,-50 276.5,-50 276.5,-70"/>
<text xml:space="preserve" text-anchor="middle" x="222" y="-56.5" font-family="Helvetica,sans-Serif" font-size="10.00">syn6288e_get_status</text>
</a>
</g>
</g>
<!-- Node1&#45;&gt;Node2 -->
<g id="edge1_Node000001_Node000002" class="edge">
<title>Node1&#45;&gt;Node2</title>
<g id="a_edge1_Node000001_Node000002"><a xlink:title=" ">
<path fill="none" stroke="#63b8ff" d="M131.72,-47.27C139.78,-48.42 148.02,-49.59 156.08,-50.74"/>
<polygon fill="#63b8ff" stroke="#63b8ff" points="155.42,-54.18 165.81,-52.13 156.4,-47.25 155.42,-54.18"/>
</a>
</g>
</g>
<!-- Node3 -->
<g id="Node000003" class="node">
<title>Node3</title>
<g id="a_Node000003"><a xlink:href="group__syn6288e__base__driver.html#ga0f88e72fc16f0efc308e2bb4068d3f55" target="_top" xlink:title="synthesis the sound">
<polygon fill="white" stroke="#666666" points="274.62,-32 169.38,-32 169.38,0 274.62,0 274.62,-32"/>
<text xml:space="preserve" text-anchor="start" x="177.38" y="-18.5" font-family="Helvetica,sans-Serif" font-size="10.00">syn6288e_synthesis</text>
<text xml:space="preserve" text-anchor="middle" x="222" y="-6.5" font-family="Helvetica,sans-Serif" font-size="10.00">_sound</text>
</a>
</g>
</g>
<!-- Node1&#45;&gt;Node3 -->
<g id="edge2_Node000001_Node000003" class="edge">
<title>Node1&#45;&gt;Node3</title>
<g id="a_edge2_Node000001_Node000003"><a xlink:title=" ">
<path fill="none" stroke="#63b8ff" d="M131.72,-28.73C140.42,-27.49 149.33,-26.22 158,-24.99"/>
<polygon fill="#63b8ff" stroke="#63b8ff" points="158.31,-28.48 167.72,-23.6 157.32,-21.55 158.31,-28.48"/>
</a>
</g>
</g>
</g>
</svg>
