<?xml version="1.0" encoding="UTF-8" standalone="no"?>
<!DOCTYPE svg PUBLIC "-//W3C//DTD SVG 1.1//EN"
 "http://www.w3.org/Graphics/SVG/1.1/DTD/svg11.dtd">
<!-- Generated by graphviz version 13.1.0 (20250701.0955)
 -->
<!-- Title: syn6288e_basic_sync Pages: 1 -->
<svg width="266pt" height="78pt"
 viewBox="0.00 0.00 266.00 78.00" xmlns="http://www.w3.org/2000/svg" xmlns:xlink="http://www.w3.org/1999/xlink">
<g id="graph0" class="graph" transform="scale(1 1) rotate(0) translate(4 74)">
<title>syn6288e_basic_sync</title>
<!-- Node1 -->
<g id="Node000001" class="node">
<title>Node1</title>
<g id="a_Node000001"><a xlink:title="basic example sync">
<polygon fill="#999999" stroke="#666666" points="112.75,-48 0,-48 0,-28 112.75,-28 112.75,-48"/>
<text xml:space="preserve" text-anchor="middle" x="56.38" y="-34.5" font-family="Helvetica,sans-Serif" font-size="10.00">syn6288e_basic_sync</text>
</a>
</g>
</g>
<!-- Node2 -->
<g id="Node000002" class="node">
<title>Node2</title>
<g id="a_Node000002"><a xlink:href="group__syn6288e__base__driver.html#ga801964beb66e070b9cce6163e3d5cbc5" target="_top" xlink:title="get the current status">
<polygon fill="white" stroke="#666666" points="257.75,-70 148.75,-70 148.75,-50 257.75,-50 257.75,-70"/>
<text xml:space="preserve" text-anchor="middle" x="203.25" y="-56.5" font-family="Helvetica,sans-Serif" font-size="10.00">syn6288e_get_status</text>
</a>
</g>
</g>
<!-- Node1&#45;&gt;Node2 -->
<g id="edge1_Node000001_Node000002" class="edge">
<title>Node1&#45;&gt;Node2</title>
<g id="a_edge1_Node000001_Node000002"><a xlink:title=" ">
<path fill="none" stroke="#63b8ff" d="M112.97,-46.44C120.89,-47.65 129.09,-48.89 137.17,-50.12"/>
<polygon fill="#63b8ff" stroke="#63b8ff" points="136.56,-53.57 146.97,-51.61 137.61,-46.64 136.56,-53.57"/>
</a>
</g>
</g>
<!-- Node3 -->
<g id="Node000003" class="node">
<title>Node3</title>
<g id="a_Node000003"><a xlink:href="group__syn6288e__interface__driver.html#ga80bcdfcaeef9b735993b0aafb1831305" target="_top" xlink:title="interface delay ms">
<polygon fill="white" stroke="#666666" points="253.62,-32 152.88,-32 152.88,0 253.62,0 253.62,-32"/>
<text xml:space="preserve" text-anchor="start" x="160.88" y="-18.5" font-family="Helvetica,sans-Serif" font-size="10.00">syn6288e_interface</text>
<text xml:space="preserve" text-anchor="middle" x="203.25" y="-6.5" font-family="Helvetica,sans-Serif" font-size="10.00">_delay_ms</text>
</a>
</g>
</g>
<!-- Node1&#45;&gt;Node3 -->
<g id="edge2_Node000001_Node000003" class="edge">
<title>Node1&#45;&gt;Node3</title>
<g id="a_edge2_Node000001_Node000003"><a xlink:title=" ">
<path fill="none" stroke="#63b8ff" d="M112.97,-29.56C122.28,-28.14 131.97,-26.67 141.4,-25.24"/>
<polygon fill="#63b8ff" stroke="#63b8ff" points="141.86,-28.71 151.23,-23.75 140.81,-21.79 141.86,-28.71"/>
</a>
</g>
</g>
</g>
</svg>
