<?xml version="1.0" encoding="UTF-8" standalone="no"?>
<!DOCTYPE svg PUBLIC "-//W3C//DTD SVG 1.1//EN"
 "http://www.w3.org/Graphics/SVG/1.1/DTD/svg11.dtd">
<!-- Generated by graphviz version 13.1.0 (20250701.0955)
 -->
<!-- Title: syn6288e_advance_sync Pages: 1 -->
<svg width="279pt" height="78pt"
 viewBox="0.00 0.00 279.00 78.00" xmlns="http://www.w3.org/2000/svg" xmlns:xlink="http://www.w3.org/1999/xlink">
<g id="graph0" class="graph" transform="scale(1 1) rotate(0) translate(4 74)">
<title>syn6288e_advance_sync</title>
<!-- Node1 -->
<g id="Node000001" class="node">
<title>Node1</title>
<g id="a_Node000001"><a xlink:title="advance example sync">
<polygon fill="#999999" stroke="#666666" points="126.25,-48 0,-48 0,-28 126.25,-28 126.25,-48"/>
<text xml:space="preserve" text-anchor="middle" x="63.12" y="-34.5" font-family="Helvetica,sans-Serif" font-size="10.00">syn6288e_advance_sync</text>
</a>
</g>
</g>
<!-- Node2 -->
<g id="Node000002" class="node">
<title>Node2</title>
<g id="a_Node000002"><a xlink:href="group__syn6288e__base__driver.html#ga801964beb66e070b9cce6163e3d5cbc5" target="_top" xlink:title="get the current status">
<polygon fill="white" stroke="#666666" points="271.25,-70 162.25,-70 162.25,-50 271.25,-50 271.25,-70"/>
<text xml:space="preserve" text-anchor="middle" x="216.75" y="-56.5" font-family="Helvetica,sans-Serif" font-size="10.00">syn6288e_get_status</text>
</a>
</g>
</g>
<!-- Node1&#45;&gt;Node2 -->
<g id="edge1_Node000001_Node000002" class="edge">
<title>Node1&#45;&gt;Node2</title>
<g id="a_edge1_Node000001_Node000002"><a xlink:title=" ">
<path fill="none" stroke="#63b8ff" d="M126.67,-47.08C134.66,-48.23 142.84,-49.42 150.86,-50.59"/>
<polygon fill="#63b8ff" stroke="#63b8ff" points="150.16,-54.02 160.55,-51.99 151.16,-47.09 150.16,-54.02"/>
</a>
</g>
</g>
<!-- Node3 -->
<g id="Node000003" class="node">
<title>Node3</title>
<g id="a_Node000003"><a xlink:href="group__syn6288e__interface__driver.html#ga80bcdfcaeef9b735993b0aafb1831305" target="_top" xlink:title="interface delay ms">
<polygon fill="white" stroke="#666666" points="267.12,-32 166.38,-32 166.38,0 267.12,0 267.12,-32"/>
<text xml:space="preserve" text-anchor="start" x="174.38" y="-18.5" font-family="Helvetica,sans-Serif" font-size="10.00">syn6288e_interface</text>
<text xml:space="preserve" text-anchor="middle" x="216.75" y="-6.5" font-family="Helvetica,sans-Serif" font-size="10.00">_delay_ms</text>
</a>
</g>
</g>
<!-- Node1&#45;&gt;Node3 -->
<g id="edge2_Node000001_Node000003" class="edge">
<title>Node1&#45;&gt;Node3</title>
<g id="a_edge2_Node000001_Node000003"><a xlink:title=" ">
<path fill="none" stroke="#63b8ff" d="M126.67,-28.92C136.07,-27.56 145.74,-26.16 155.1,-24.8"/>
<polygon fill="#63b8ff" stroke="#63b8ff" points="155.42,-28.29 164.81,-23.39 154.41,-21.36 155.42,-28.29"/>
</a>
</g>
</g>
</g>
</svg>
