<?xml version="1.0" encoding="UTF-8" standalone="no"?>
<!DOCTYPE svg PUBLIC "-//W3C//DTD SVG 1.1//EN"
 "http://www.w3.org/Graphics/SVG/1.1/DTD/svg11.dtd">
<!-- Generated by graphviz version 13.1.0 (20250701.0955)
 -->
<!-- Title: syn6288e_basic_init Pages: 1 -->
<svg width="442pt" height="680pt"
 viewBox="0.00 0.00 442.00 680.00" xmlns="http://www.w3.org/2000/svg" xmlns:xlink="http://www.w3.org/1999/xlink">
<g id="graph0" class="graph" transform="scale(1 1) rotate(0) translate(4 676)">
<title>syn6288e_basic_init</title>
<!-- Node1 -->
<g id="Node000001" class="node">
<title>Node1</title>
<g id="a_Node000001"><a xlink:title="basic example init">
<polygon fill="#999999" stroke="#666666" points="104.5,-340 0,-340 0,-320 104.5,-320 104.5,-340"/>
<text xml:space="preserve" text-anchor="middle" x="52.25" y="-326.5" font-family="Helvetica,sans-Serif" font-size="10.00">syn6288e_basic_init</text>
</a>
</g>
</g>
<!-- Node2 -->
<g id="Node000002" class="node">
<title>Node2</title>
<g id="a_Node000002"><a xlink:href="group__syn6288e__base__driver.html#ga32e0712f97dd34947b151ee47fab65b7" target="_top" xlink:title="close the chip">
<polygon fill="white" stroke="#666666" points="249.88,-672 163.38,-672 163.38,-652 249.88,-652 249.88,-672"/>
<text xml:space="preserve" text-anchor="middle" x="206.62" y="-658.5" font-family="Helvetica,sans-Serif" font-size="10.00">syn6288e_deinit</text>
</a>
</g>
</g>
<!-- Node1&#45;&gt;Node2 -->
<g id="edge1_Node000001_Node000002" class="edge">
<title>Node1&#45;&gt;Node2</title>
<g id="a_edge1_Node000001_Node000002"><a xlink:title=" ">
<path fill="none" stroke="#63b8ff" d="M52.8,-340.38C51.51,-383.96 52.48,-553.92 140.5,-643 144.04,-646.58 148.22,-649.5 152.72,-651.87"/>
<polygon fill="#63b8ff" stroke="#63b8ff" points="151,-654.95 161.58,-655.65 153.75,-648.51 151,-654.95"/>
</a>
</g>
</g>
<!-- Node3 -->
<g id="Node000003" class="node">
<title>Node3</title>
<g id="a_Node000003"><a xlink:href="group__syn6288e__base__driver.html#ga172947bacb87149f618b9287c6321627" target="_top" xlink:title="initialize the chip">
<polygon fill="white" stroke="#666666" points="244.62,-634 168.62,-634 168.62,-614 244.62,-614 244.62,-634"/>
<text xml:space="preserve" text-anchor="middle" x="206.62" y="-620.5" font-family="Helvetica,sans-Serif" font-size="10.00">syn6288e_init</text>
</a>
</g>
</g>
<!-- Node1&#45;&gt;Node3 -->
<g id="edge2_Node000001_Node000003" class="edge">
<title>Node1&#45;&gt;Node3</title>
<g id="a_edge2_Node000001_Node000003"><a xlink:title=" ">
<path fill="none" stroke="#63b8ff" d="M53.27,-340.49C53.93,-380.92 61.86,-528.17 140.5,-605 145.3,-609.69 151.2,-613.24 157.46,-615.91"/>
<polygon fill="#63b8ff" stroke="#63b8ff" points="156.19,-619.18 166.78,-619.15 158.48,-612.56 156.19,-619.18"/>
</a>
</g>
</g>
<!-- Node4 -->
<g id="Node000004" class="node">
<title>Node4</title>
<g id="a_Node000004"><a xlink:href="group__syn6288e__interface__driver.html#gabc89328936a4fec87c7ed0ce188f6377" target="_top" xlink:title="interface print format data">
<polygon fill="white" stroke="#666666" points="257,-596 156.25,-596 156.25,-564 257,-564 257,-596"/>
<text xml:space="preserve" text-anchor="start" x="164.25" y="-582.5" font-family="Helvetica,sans-Serif" font-size="10.00">syn6288e_interface</text>
<text xml:space="preserve" text-anchor="middle" x="206.62" y="-570.5" font-family="Helvetica,sans-Serif" font-size="10.00">_debug_print</text>
</a>
</g>
</g>
<!-- Node1&#45;&gt;Node4 -->
<g id="edge3_Node000001_Node000004" class="edge">
<title>Node1&#45;&gt;Node4</title>
<g id="a_edge3_Node000001_Node000004"><a xlink:title=" ">
<path fill="none" stroke="#63b8ff" d="M54.28,-340.08C58.35,-374.86 76.4,-491.12 140.5,-555 142.31,-556.81 144.27,-558.48 146.33,-560.04"/>
<polygon fill="#63b8ff" stroke="#63b8ff" points="144.37,-562.94 154.69,-565.33 148.11,-557.03 144.37,-562.94"/>
</a>
</g>
</g>
<!-- Node5 -->
<g id="Node000005" class="node">
<title>Node5</title>
<g id="a_Node000005"><a xlink:href="group__syn6288e__interface__driver.html#ga80bcdfcaeef9b735993b0aafb1831305" target="_top" xlink:title="interface delay ms">
<polygon fill="white" stroke="#666666" points="257,-546 156.25,-546 156.25,-514 257,-514 257,-546"/>
<text xml:space="preserve" text-anchor="start" x="164.25" y="-532.5" font-family="Helvetica,sans-Serif" font-size="10.00">syn6288e_interface</text>
<text xml:space="preserve" text-anchor="middle" x="206.62" y="-520.5" font-family="Helvetica,sans-Serif" font-size="10.00">_delay_ms</text>
</a>
</g>
</g>
<!-- Node1&#45;&gt;Node5 -->
<g id="edge4_Node000001_Node000005" class="edge">
<title>Node1&#45;&gt;Node5</title>
<g id="a_edge4_Node000001_Node000005"><a xlink:title=" ">
<path fill="none" stroke="#63b8ff" d="M55.58,-340.28C62.82,-370.01 87.73,-457.06 140.5,-505 142.36,-506.69 144.34,-508.26 146.42,-509.74"/>
<polygon fill="#63b8ff" stroke="#63b8ff" points="144.36,-512.59 154.73,-514.78 147.99,-506.6 144.36,-512.59"/>
</a>
</g>
</g>
<!-- Node6 -->
<g id="Node000006" class="node">
<title>Node6</title>
<g id="a_Node000006"><a xlink:href="group__syn6288e__interface__driver.html#gad9547cd1c611abd47e903e0caad052cf" target="_top" xlink:title="interface uart deinit">
<polygon fill="white" stroke="#666666" points="257,-496 156.25,-496 156.25,-464 257,-464 257,-496"/>
<text xml:space="preserve" text-anchor="start" x="164.25" y="-482.5" font-family="Helvetica,sans-Serif" font-size="10.00">syn6288e_interface</text>
<text xml:space="preserve" text-anchor="middle" x="206.62" y="-470.5" font-family="Helvetica,sans-Serif" font-size="10.00">_uart_deinit</text>
</a>
</g>
</g>
<!-- Node1&#45;&gt;Node6 -->
<g id="edge5_Node000001_Node000006" class="edge">
<title>Node1&#45;&gt;Node6</title>
<g id="a_edge5_Node000001_Node000006"><a xlink:title=" ">
<path fill="none" stroke="#63b8ff" d="M57.8,-340.29C68.71,-363.86 98.61,-422.22 140.5,-455 142.25,-456.37 144.09,-457.67 145.99,-458.91"/>
<polygon fill="#63b8ff" stroke="#63b8ff" points="144.18,-461.91 154.6,-463.82 147.64,-455.83 144.18,-461.91"/>
</a>
</g>
</g>
<!-- Node7 -->
<g id="Node000007" class="node">
<title>Node7</title>
<g id="a_Node000007"><a xlink:href="group__syn6288e__interface__driver.html#ga46b2b35e51ac9592e47f3d467982163d" target="_top" xlink:title="interface uart flush">
<polygon fill="white" stroke="#666666" points="257,-446 156.25,-446 156.25,-414 257,-414 257,-446"/>
<text xml:space="preserve" text-anchor="start" x="164.25" y="-432.5" font-family="Helvetica,sans-Serif" font-size="10.00">syn6288e_interface</text>
<text xml:space="preserve" text-anchor="middle" x="206.62" y="-420.5" font-family="Helvetica,sans-Serif" font-size="10.00">_uart_flush</text>
</a>
</g>
</g>
<!-- Node1&#45;&gt;Node7 -->
<g id="edge6_Node000001_Node000007" class="edge">
<title>Node1&#45;&gt;Node7</title>
<g id="a_edge6_Node000001_Node000007"><a xlink:title=" ">
<path fill="none" stroke="#63b8ff" d="M62.83,-340.25C78.02,-355.99 109.12,-386.26 140.5,-405 142.53,-406.21 144.63,-407.39 146.78,-408.52"/>
<polygon fill="#63b8ff" stroke="#63b8ff" points="145.2,-411.64 155.72,-412.86 148.25,-405.34 145.2,-411.64"/>
</a>
</g>
</g>
<!-- Node8 -->
<g id="Node000008" class="node">
<title>Node8</title>
<g id="a_Node000008"><a xlink:href="group__syn6288e__interface__driver.html#ga1ec17920469019e72367d77a7b889212" target="_top" xlink:title="interface uart init">
<polygon fill="white" stroke="#666666" points="257,-396 156.25,-396 156.25,-364 257,-364 257,-396"/>
<text xml:space="preserve" text-anchor="start" x="164.25" y="-382.5" font-family="Helvetica,sans-Serif" font-size="10.00">syn6288e_interface</text>
<text xml:space="preserve" text-anchor="middle" x="206.62" y="-370.5" font-family="Helvetica,sans-Serif" font-size="10.00">_uart_init</text>
</a>
</g>
</g>
<!-- Node1&#45;&gt;Node8 -->
<g id="edge7_Node000001_Node000008" class="edge">
<title>Node1&#45;&gt;Node8</title>
<g id="a_edge7_Node000001_Node000008"><a xlink:title=" ">
<path fill="none" stroke="#63b8ff" d="M85.19,-340.48C102.58,-346.19 124.66,-353.43 145.16,-360.16"/>
<polygon fill="#63b8ff" stroke="#63b8ff" points="143.99,-363.46 154.59,-363.25 146.18,-356.81 143.99,-363.46"/>
</a>
</g>
</g>
<!-- Node9 -->
<g id="Node000009" class="node">
<title>Node9</title>
<g id="a_Node000009"><a xlink:href="group__syn6288e__interface__driver.html#gab44724a376030068f31dad3e4c5c5491" target="_top" xlink:title="interface uart read">
<polygon fill="white" stroke="#666666" points="257,-346 156.25,-346 156.25,-314 257,-314 257,-346"/>
<text xml:space="preserve" text-anchor="start" x="164.25" y="-332.5" font-family="Helvetica,sans-Serif" font-size="10.00">syn6288e_interface</text>
<text xml:space="preserve" text-anchor="middle" x="206.62" y="-320.5" font-family="Helvetica,sans-Serif" font-size="10.00">_uart_read</text>
</a>
</g>
</g>
<!-- Node1&#45;&gt;Node9 -->
<g id="edge8_Node000001_Node000009" class="edge">
<title>Node1&#45;&gt;Node9</title>
<g id="a_edge8_Node000001_Node000009"><a xlink:title=" ">
<path fill="none" stroke="#63b8ff" d="M104.84,-330C117.59,-330 131.38,-330 144.54,-330"/>
<polygon fill="#63b8ff" stroke="#63b8ff" points="144.38,-333.5 154.38,-330 144.38,-326.5 144.38,-333.5"/>
</a>
</g>
</g>
<!-- Node10 -->
<g id="Node000010" class="node">
<title>Node10</title>
<g id="a_Node000010"><a xlink:href="group__syn6288e__interface__driver.html#gac787aec548ad34413d60e41f3521c44a" target="_top" xlink:title="interface uart write">
<polygon fill="white" stroke="#666666" points="257,-296 156.25,-296 156.25,-264 257,-264 257,-296"/>
<text xml:space="preserve" text-anchor="start" x="164.25" y="-282.5" font-family="Helvetica,sans-Serif" font-size="10.00">syn6288e_interface</text>
<text xml:space="preserve" text-anchor="middle" x="206.62" y="-270.5" font-family="Helvetica,sans-Serif" font-size="10.00">_uart_write</text>
</a>
</g>
</g>
<!-- Node1&#45;&gt;Node10 -->
<g id="edge9_Node000001_Node000010" class="edge">
<title>Node1&#45;&gt;Node10</title>
<g id="a_edge9_Node000001_Node000010"><a xlink:title=" ">
<path fill="none" stroke="#63b8ff" d="M85.19,-319.52C102.58,-313.81 124.66,-306.57 145.16,-299.84"/>
<polygon fill="#63b8ff" stroke="#63b8ff" points="146.18,-303.19 154.59,-296.75 143.99,-296.54 146.18,-303.19"/>
</a>
</g>
</g>
<!-- Node11 -->
<g id="Node000011" class="node">
<title>Node11</title>
<g id="a_Node000011"><a xlink:href="group__syn6288e__advance__driver.html#ga052127ef7bbf2d3f5f277f3037502b5f" target="_top" xlink:title="set the synthesis background volume">
<polygon fill="white" stroke="#666666" points="272.75,-246 140.5,-246 140.5,-214 272.75,-214 272.75,-246"/>
<text xml:space="preserve" text-anchor="start" x="148.5" y="-232.5" font-family="Helvetica,sans-Serif" font-size="10.00">syn6288e_set_background</text>
<text xml:space="preserve" text-anchor="middle" x="206.62" y="-220.5" font-family="Helvetica,sans-Serif" font-size="10.00">_volume</text>
</a>
</g>
</g>
<!-- Node1&#45;&gt;Node11 -->
<g id="edge10_Node000001_Node000011" class="edge">
<title>Node1&#45;&gt;Node11</title>
<g id="a_edge10_Node000001_Node000011"><a xlink:title=" ">
<path fill="none" stroke="#63b8ff" d="M62.83,-319.75C78.02,-304.01 109.12,-273.74 140.5,-255 142.53,-253.79 144.63,-252.61 146.78,-251.48"/>
<polygon fill="#63b8ff" stroke="#63b8ff" points="148.25,-254.66 155.72,-247.14 145.2,-248.36 148.25,-254.66"/>
</a>
</g>
</g>
<!-- Node13 -->
<g id="Node000013" class="node">
<title>Node13</title>
<g id="a_Node000013"><a xlink:href="group__syn6288e__advance__driver.html#ga34dca4b83f6ee4154c761286ae07aa9e" target="_top" xlink:title="set the baud rate">
<polygon fill="white" stroke="#666666" points="269,-196 144.25,-196 144.25,-176 269,-176 269,-196"/>
<text xml:space="preserve" text-anchor="middle" x="206.62" y="-182.5" font-family="Helvetica,sans-Serif" font-size="10.00">syn6288e_set_baud_rate</text>
</a>
</g>
</g>
<!-- Node1&#45;&gt;Node13 -->
<g id="edge12_Node000001_Node000013" class="edge">
<title>Node1&#45;&gt;Node13</title>
<g id="a_edge12_Node000001_Node000013"><a xlink:title=" ">
<path fill="none" stroke="#63b8ff" d="M57.46,-319.82C67.86,-295.98 97.07,-236.18 140.5,-205 142.29,-203.71 144.17,-202.51 146.12,-201.39"/>
<polygon fill="#63b8ff" stroke="#63b8ff" points="147.46,-204.63 154.91,-197.1 144.39,-198.34 147.46,-204.63"/>
</a>
</g>
</g>
<!-- Node14 -->
<g id="Node000014" class="node">
<title>Node14</title>
<g id="a_Node000014"><a xlink:href="group__syn6288e__advance__driver.html#gafe71d66fdf84e943b89a98f8c380bb64" target="_top" xlink:title="set the chip mode">
<polygon fill="white" stroke="#666666" points="259.62,-158 153.62,-158 153.62,-138 259.62,-138 259.62,-158"/>
<text xml:space="preserve" text-anchor="middle" x="206.62" y="-144.5" font-family="Helvetica,sans-Serif" font-size="10.00">syn6288e_set_mode</text>
</a>
</g>
</g>
<!-- Node1&#45;&gt;Node14 -->
<g id="edge13_Node000001_Node000014" class="edge">
<title>Node1&#45;&gt;Node14</title>
<g id="a_edge13_Node000001_Node000014"><a xlink:title=" ">
<path fill="none" stroke="#63b8ff" d="M55.72,-319.81C63.22,-291.16 88.4,-209.27 140.5,-167 141.81,-165.93 143.19,-164.93 144.61,-163.98"/>
<polygon fill="#63b8ff" stroke="#63b8ff" points="146.16,-167.12 153.22,-159.22 142.77,-160.99 146.16,-167.12"/>
</a>
</g>
</g>
<!-- Node15 -->
<g id="Node000015" class="node">
<title>Node15</title>
<g id="a_Node000015"><a xlink:href="group__syn6288e__advance__driver.html#ga8a5f39283e056acf93c1e9739e2fa792" target="_top" xlink:title="set the synthesis speed">
<polygon fill="white" stroke="#666666" points="268.62,-120 144.62,-120 144.62,-88 268.62,-88 268.62,-120"/>
<text xml:space="preserve" text-anchor="start" x="152.62" y="-106.5" font-family="Helvetica,sans-Serif" font-size="10.00">syn6288e_set_synthesis</text>
<text xml:space="preserve" text-anchor="middle" x="206.62" y="-94.5" font-family="Helvetica,sans-Serif" font-size="10.00">_speed</text>
</a>
</g>
</g>
<!-- Node1&#45;&gt;Node15 -->
<g id="edge14_Node000001_Node000015" class="edge">
<title>Node1&#45;&gt;Node15</title>
<g id="a_edge14_Node000001_Node000015"><a xlink:title=" ">
<path fill="none" stroke="#63b8ff" d="M54.86,-319.64C60.44,-286.98 81.99,-185.05 140.5,-129 141.25,-128.29 142.01,-127.59 142.8,-126.91"/>
<polygon fill="#63b8ff" stroke="#63b8ff" points="144.6,-129.94 150.69,-121.27 140.52,-124.24 144.6,-129.94"/>
</a>
</g>
</g>
<!-- Node16 -->
<g id="Node000016" class="node">
<title>Node16</title>
<g id="a_Node000016"><a xlink:href="group__syn6288e__advance__driver.html#gac7b237140ecb430a4f5c57fef3f48dd0" target="_top" xlink:title="set the chip synthesis volume">
<polygon fill="white" stroke="#666666" points="268.62,-70 144.62,-70 144.62,-38 268.62,-38 268.62,-70"/>
<text xml:space="preserve" text-anchor="start" x="152.62" y="-56.5" font-family="Helvetica,sans-Serif" font-size="10.00">syn6288e_set_synthesis</text>
<text xml:space="preserve" text-anchor="middle" x="206.62" y="-44.5" font-family="Helvetica,sans-Serif" font-size="10.00">_volume</text>
</a>
</g>
</g>
<!-- Node1&#45;&gt;Node16 -->
<g id="edge16_Node000001_Node000016" class="edge">
<title>Node1&#45;&gt;Node16</title>
<g id="a_edge16_Node000001_Node000016"><a xlink:title=" ">
<path fill="none" stroke="#63b8ff" d="M53.84,-319.57C56.52,-281.86 70.69,-151.08 140.5,-79 141.1,-78.38 141.72,-77.78 142.35,-77.19"/>
<polygon fill="#63b8ff" stroke="#63b8ff" points="144.32,-80.09 150.14,-71.24 140.07,-74.52 144.32,-80.09"/>
</a>
</g>
</g>
<!-- Node17 -->
<g id="Node000017" class="node">
<title>Node17</title>
<g id="a_Node000017"><a xlink:href="group__syn6288e__base__driver.html#ga4f7a298caa7413cba060b3cb0bc0f0d4" target="_top" xlink:title="set the chip text type">
<polygon fill="white" stroke="#666666" points="267.88,-20 145.38,-20 145.38,0 267.88,0 267.88,-20"/>
<text xml:space="preserve" text-anchor="middle" x="206.62" y="-6.5" font-family="Helvetica,sans-Serif" font-size="10.00">syn6288e_set_text_type</text>
</a>
</g>
</g>
<!-- Node1&#45;&gt;Node17 -->
<g id="edge18_Node000001_Node000017" class="edge">
<title>Node1&#45;&gt;Node17</title>
<g id="a_edge18_Node000001_Node000017"><a xlink:title=" ">
<path fill="none" stroke="#63b8ff" d="M52.94,-319.72C52.23,-277.33 55.36,-114.29 140.5,-29 141.25,-28.25 142.02,-27.53 142.82,-26.84"/>
<polygon fill="#63b8ff" stroke="#63b8ff" points="144.65,-29.83 150.94,-21.31 140.71,-24.05 144.65,-29.83"/>
</a>
</g>
</g>
<!-- Node12 -->
<g id="Node000012" class="node">
<title>Node12</title>
<g id="a_Node000012"><a xlink:href="group__syn6288e__extend__driver.html#ga6e859df066db8be021d2ebfab4d6a778" target="_top" xlink:title="send the command to the chip">
<polygon fill="white" stroke="#666666" points="433.5,-114 308.75,-114 308.75,-94 433.5,-94 433.5,-114"/>
<text xml:space="preserve" text-anchor="middle" x="371.12" y="-100.5" font-family="Helvetica,sans-Serif" font-size="10.00">syn6288e_set_command</text>
</a>
</g>
</g>
<!-- Node11&#45;&gt;Node12 -->
<g id="edge11_Node000011_Node000012" class="edge">
<title>Node11&#45;&gt;Node12</title>
<g id="a_edge11_Node000011_Node000012"><a xlink:title=" ">
<path fill="none" stroke="#63b8ff" d="M257.48,-213.5C262.81,-210.98 268,-208.14 272.75,-205 307.06,-182.27 338.51,-145.54 355.92,-123.19"/>
<polygon fill="#63b8ff" stroke="#63b8ff" points="358.49,-125.59 361.77,-115.51 352.92,-121.35 358.49,-125.59"/>
</a>
</g>
</g>
<!-- Node15&#45;&gt;Node12 -->
<g id="edge15_Node000015_Node000012" class="edge">
<title>Node15&#45;&gt;Node12</title>
<g id="a_edge15_Node000015_Node000012"><a xlink:title=" ">
<path fill="none" stroke="#63b8ff" d="M269.06,-104C278.2,-104 287.69,-104 297.04,-104"/>
<polygon fill="#63b8ff" stroke="#63b8ff" points="296.82,-107.5 306.82,-104 296.82,-100.5 296.82,-107.5"/>
</a>
</g>
</g>
<!-- Node16&#45;&gt;Node12 -->
<g id="edge17_Node000016_Node000012" class="edge">
<title>Node16&#45;&gt;Node12</title>
<g id="a_edge17_Node000016_Node000012"><a xlink:title=" ">
<path fill="none" stroke="#63b8ff" d="M260.83,-70.37C281.67,-76.78 305.3,-84.06 325.25,-90.19"/>
<polygon fill="#63b8ff" stroke="#63b8ff" points="324.19,-93.53 334.77,-93.12 326.25,-86.84 324.19,-93.53"/>
</a>
</g>
</g>
</g>
</svg>
