<?xml version="1.0" encoding="UTF-8" standalone="no"?>
<!DOCTYPE svg PUBLIC "-//W3C//DTD SVG 1.1//EN"
 "http://www.w3.org/Graphics/SVG/1.1/DTD/svg11.dtd">
<!-- Generated by graphviz version 13.1.0 (20250701.0955)
 -->
<!-- Title: syn6288e_basic_synthesis Pages: 1 -->
<svg width="305pt" height="66pt"
 viewBox="0.00 0.00 305.00 66.00" xmlns="http://www.w3.org/2000/svg" xmlns:xlink="http://www.w3.org/1999/xlink">
<g id="graph0" class="graph" transform="scale(1 1) rotate(0) translate(4 62)">
<title>syn6288e_basic_synthesis</title>
<!-- Node1 -->
<g id="Node000001" class="node">
<title>Node1</title>
<g id="a_Node000001"><a xlink:title="basic example synthesis">
<polygon fill="#999999" stroke="#666666" points="133.75,-39 0,-39 0,-19 133.75,-19 133.75,-39"/>
<text xml:space="preserve" text-anchor="middle" x="66.88" y="-25.5" font-family="Helvetica,sans-Serif" font-size="10.00">syn6288e_basic_synthesis</text>
</a>
</g>
</g>
<!-- Node2 -->
<g id="Node000002" class="node">
<title>Node2</title>
<g id="a_Node000002"><a xlink:href="group__syn6288e__base__driver.html#ga801964beb66e070b9cce6163e3d5cbc5" target="_top" xlink:title="get the current status">
<polygon fill="white" stroke="#666666" points="287.75,-58 178.75,-58 178.75,-38 287.75,-38 287.75,-58"/>
<text xml:space="preserve" text-anchor="middle" x="233.25" y="-44.5" font-family="Helvetica,sans-Serif" font-size="10.00">syn6288e_get_status</text>
</a>
</g>
</g>
<!-- Node1&#45;&gt;Node2 -->
<g id="edge1_Node000001_Node000002" class="edge">
<title>Node1&#45;&gt;Node2</title>
<g id="a_edge1_Node000001_Node000002"><a xlink:title=" ">
<path fill="none" stroke="#63b8ff" d="M133.79,-36.62C144.79,-37.89 156.2,-39.21 167.18,-40.48"/>
<polygon fill="#63b8ff" stroke="#63b8ff" points="166.6,-43.93 176.93,-41.61 167.4,-36.98 166.6,-43.93"/>
</a>
</g>
</g>
<!-- Node3 -->
<g id="Node000003" class="node">
<title>Node3</title>
<g id="a_Node000003"><a xlink:href="group__syn6288e__base__driver.html#ga0f761ba6b1a5219c09bca625085f18e6" target="_top" xlink:title="synthesis the test">
<polygon fill="white" stroke="#666666" points="296.75,-20 169.75,-20 169.75,0 296.75,0 296.75,-20"/>
<text xml:space="preserve" text-anchor="middle" x="233.25" y="-6.5" font-family="Helvetica,sans-Serif" font-size="10.00">syn6288e_synthesis_text</text>
</a>
</g>
</g>
<!-- Node1&#45;&gt;Node3 -->
<g id="edge2_Node000001_Node000003" class="edge">
<title>Node1&#45;&gt;Node3</title>
<g id="a_edge2_Node000001_Node000003"><a xlink:title=" ">
<path fill="none" stroke="#63b8ff" d="M133.79,-21.38C141.74,-20.46 149.9,-19.52 157.96,-18.59"/>
<polygon fill="#63b8ff" stroke="#63b8ff" points="158.23,-22.08 167.76,-17.45 157.42,-15.13 158.23,-22.08"/>
</a>
</g>
</g>
</g>
</svg>
